#!OML:ASF F:\VICON\USERDATA\INSTALL\rory3\rory3.ASF
:FULLY-SPECIFIED
:DEGREES
84
root 1.192187077408152 17.965617993717835 48.73938835533722 -2.5791519750121457 -0.8520876542878602 2.1609075624218033
lfemur 7.870036629298625 -5.20722486076279 -27.359386177131476
ltibia 20.21499955862223
lfoot -5.012773747506322 -4.936229001466984
ltoes -8.047630033801576
rfemur -24.58262073689329 0.5468463879846697 19.987597556011725
rtibia 52.57931984968176
rfoot -6.235325205031331 0.06894668825778627
rtoes 1.824479195372121
lowerback 8.962112995806876 -1.3282369926997128 -2.175285056124917
upperback -0.04484031966387472 -2.0434746181414147 0.9276625810644813
thorax -5.022716854176991 -1.0428170209932324 2.4761629734251724
lowerneck -16.54973739535978 -2.8999299428301475 -1.6249297143139754
upperneck 21.521157265209077 -3.733092787247645 1.0781481658730114
head 9.655644910413564 -1.8006342784107 0.25020172436013294
lclavicle 3.532157760389967e-16 -8.42262063378488e-16
lhumerus -27.797065983160646 1.3572826500253679 79.66151727341827
lradius 27.281239714427418
lwrist 5.869171657805268
lhand -28.126890296572373 20.5153759163767
lfingers nan
lthumb -1.4902140829421144 50.530497758706396
rclavicle 4.1493088912941075e-16 -7.988741956302993e-16
rhumerus -30.14229312886178 -18.993904893420005 -80.90486141098329
rradius 31.86216370394213
rwrist 0.6446913489624251
rhand -18.004951979600555 20.93348598519968
rfingers nan
rthumb 8.594317135807257 -7.918126172924591
85
root 1.2698897385221222 17.955531518264245 50.02890207156147 -2.8994089411359814 -1.157214618190556 3.6219313114746727
lfemur 9.741428005979525 -5.630435528684488 -28.61270382144803
ltibia 20.88861619775914
lfoot -3.658308828350612 -6.6490581790820595
ltoes -7.011384624475056
rfemur -24.073525633612572 0.3112110535752022 19.06884551595083
rtibia 47.54795114778474
rfoot -6.511008668104395 0.4390268256392229
rtoes 1.3810168732745225
lowerback 9.069239432836431 -1.452538034394308 -3.282832955108217
upperback 0.026042627589141845 -2.3982588506710387 0.807025554923269
thorax -4.827980393559416 -1.205441848277178 2.8511022500153875
lowerneck -16.49477417387526 -2.8028617439933274 -1.807129734978454
upperneck 21.773964039028375 -3.5481870546253798 0.9077179407701302
head 9.714620155439023 -1.7303771004404864 0.2568527607486391
lclavicle 3.4104075234393706e-16 -8.491676020356857e-16
lhumerus -27.709506829130422 1.020374962549134 79.61331273970393
lradius 27.053344683054362
lwrist 6.005360478119253
lhand -28.133098006463435 20.628121465371045
lfingers nan
lthumb -1.4833690493645095 50.688760134208906
rclavicle 4.1150428470177025e-16 -7.999376722013409e-16
rhumerus -30.751451957547793 -19.36686510544731 -80.56632205330675
rradius 32.17045786742679
rwrist 0.6729659221255626
rhand -18.042300107494235 20.835894827677816
rfingers nan
rthumb 8.583468855240726 -7.965659336506475
86
root 1.320009885440057 17.957709931804924 50.885774501453405 -2.4931404714164245 -1.2613878077055447 2.5556134060426983
lfemur 9.91777814000864 -5.714259805875819 -27.538937579176043
ltibia 22.99388962125212
lfoot -3.1687651672274453 -6.128235398297207
ltoes -6.934665491750769
rfemur -24.0837976020522 0.5364254336232479 20.498292427388904
rtibia 43.01602411352789
rfoot -6.998020947365783 0.5190665924257267
rtoes 0.9188606202743488
lowerback 9.022987252527233 -1.6752654811881351 -2.598015490394966
upperback 0.01428621524058761 -2.588230015454454 1.0281696813821382
thorax -4.7912932448547965 -1.277417841718047 3.0386424003591244
lowerneck -16.423549707784538 -2.72684438954794 -1.9788729973236927
upperneck 22.01715982085638 -3.396543539200433 0.716080242867206
head 9.771907815728746 -1.675353253372351 0.23776972023488546
lclavicle 3.306043259544295e-16 -8.553734295007892e-16
lhumerus -27.7903819096091 0.7179596424580268 79.59165980779856
lradius 26.69296265243042
lwrist 6.209909338363957
lhand -28.134696752166167 20.65721840116679
lfingers nan
lthumb -1.4653047498314116 50.76470087387073
rclavicle 4.089348723671392e-16 -8.007762050080414e-16
rhumerus -31.246347919434125 -19.718388787597732 -80.09966126724505
rradius 32.505508340744335
rwrist 0.8706638522899679
rhand -17.999392878021652 20.927849163258845
rfingers nan
rthumb 8.608334990359499 -7.933372672330395
87
root 1.3531966907801887 17.94824313042775 51.56031228865883 -2.7236947790192807 -1.7163711207518937 2.817514044744338
lfemur 9.976589210914437 -5.331572488556212 -27.39516263516909
ltibia 25.716948924265086
lfoot -3.85355722991202 -6.34511906149236
ltoes -5.676536441013924
rfemur -23.489018926702478 0.8981416811294336 20.8467767446351
rtibia 39.006973156494404
rfoot -7.6395044618845045 -0.35804280408811096
rtoes 0.6322710853761451
lowerback 9.142252005482357 -1.7351274761839686 -2.941756847018907
upperback 0.03364284388474302 -2.6844854016418425 1.1011995511032113
thorax -4.7552538747760345 -1.3093403350185375 3.191204570938694
lowerneck -16.375967275826618 -2.681017866766268 -2.0993893763386255
upperneck 22.191857950503653 -3.296481293698634 0.5283359088475775
head 9.812952909681432 -1.6424735486093178 0.19476159791784214
lclavicle 3.247055973587086e-16 -8.589799912131936e-16
lhumerus -27.953083173346528 0.5035472222470769 79.60134923970232
lradius 26.201279976187404
lwrist 6.408086755138225
lhand -28.136474873287252 20.609399283448347
lfingers nan
lthumb -1.4640304000737323 50.70786916347747
rclavicle 4.0540196277762237e-16 -8.028188909887505e-16
rhumerus -31.610469145064258 -20.096510497009362 -79.53530433549135
rradius 32.823095971192174
rwrist 1.210839883559999
rhand -18.04643604365689 20.812753591524725
rfingers nan
rthumb 8.591879114921367 -7.996781097580371
88
root 1.3699578011406075 17.93094345546817 51.84928480140759 -2.9229610419022483 -2.0934151051398997 1.9912452570927013
lfemur 9.335471198050758 -4.677310588370143 -26.10207902319874
ltibia 29.233377397623514
lfoot -4.275865098103342 -5.3632577752653425
ltoes -4.649190732675886
rfemur -22.646178818521737 1.3571670069312853 21.986519921309934
rtibia 35.53477896262562
rfoot -8.270658646097122 -2.2824643270676135
rtoes 0.7938349817654937
lowerback 9.190371186158725 -1.735235342463291 -2.488710496947122
upperback 0.059425545883692296 -2.5976255810182387 1.274897792531658
thorax -4.750553954772609 -1.270884306791644 3.194230579148895
lowerneck -16.354246858939163 -2.664876560706484 -2.153470632495162
upperneck 22.25795087258318 -3.2503786212848254 0.3732017109418541
head 9.825080611330574 -1.6309467079947837 0.14182496012704293
lclavicle 3.189440102733589e-16 -8.626975856324138e-16
lhumerus -28.115515824763143 0.4571502144176991 79.64989682323012
lradius 25.58785770741719
lwrist 6.6000415539736625
lhand -28.13888202579545 20.515834752169805
lfingers nan
lthumb -1.4560862999172253 50.61426179555618
rclavicle 4.0233194730591114e-16 -8.04693703601633e-16
rhumerus -31.89654027700247 -20.561976933281052 -78.93884343300266
rradius 33.08883763914302
rwrist 1.6206863969526553
rhand -18.02241958797741 20.87427562952748
rfingers nan
rthumb 8.612694633652017 -7.964495200750025
